<svg xmlns="http://www.w3.org/2000/svg" width="95" height="43" viewBox="0 0 95 43"><g fill-rule="evenodd"><path d="M3.612 1.573L.026 4.674v.35L0 5.049l.026.26V42.5h30.27l.255.029.03-.03h.364L34 39.357V1.53l-30.388.043zm.444.953l13.281-.025-2.464 2.173-13.108.001 2.29-2.149zm14.617.063l13.555.024-2.419 2.061-13.591.007 2.455-2.092zm12.272 2.945l1.998-1.922v5.633l-1.998 1.923V5.534zm-14.847.35H29.72v6.113H16.098V5.883zm-14.848 0h13.623v6.113H1.25V5.883zm29.695 6.974l1.998-1.924v5.634l-1.998 1.924v-5.634zm-7.424 6.463h6.198v-6.113h-6.198v6.113zm-14.847 0h13.622v-6.113H8.674v6.113zm-7.424 0H7.45v-6.113H1.25v6.113zm29.695.86l1.998-1.923v5.634l-1.998 1.922v-5.633zm-14.847.35H29.721v6.113H16.097v-6.113zm-14.848 0H14.873v6.113H1.25v-6.113zm29.695 6.972l1.998-1.922v5.634l-1.998 1.922v-5.634zm-7.424 6.465h6.198v-6.114h-6.198v6.114zm-14.847 0h13.622v-6.114H8.674v6.114zm-7.424 0H7.45v-6.114H1.25v6.114zm29.695.86l1.998-1.923v5.983l-1.998 1.923v-5.984zm-14.847.349H29.721v6.114H16.097v-6.114zm-14.848 0H14.873v6.114H1.25v-6.114zM41.678 18.53V2.826H51.9v2.908h-6.398v3.378h4.788v2.908h-4.788v6.51h-3.825zm18.165.157c-1.82 0-3.31-.586-4.474-1.757-1.163-1.17-1.745-2.725-1.745-4.664 0-1.939.578-3.482 1.734-4.63 1.156-1.15 2.65-1.723 4.485-1.723 1.835 0 3.356.566 4.564 1.7 1.208 1.133 1.812 2.707 1.812 4.72 0 .433-.03.835-.09 1.208h-8.59c.074.552.32 1.003.738 1.354.418.35.869.525 1.354.525.484 0 .846-.048 1.085-.145.238-.097.413-.194.525-.29a3.87 3.87 0 0 0 .436-.482h4.14c-.359 1.253-1.075 2.263-2.148 3.031-1.074.769-2.35 1.153-3.826 1.153zm1.633-8.96c-.447-.365-.977-.548-1.588-.548-.612 0-1.126.183-1.544.548-.417.365-.678.839-.783 1.42h4.676a2.033 2.033 0 0 0-.76-1.42zm6.354.078c0-1.103.47-2.028 1.409-2.774.94-.745 2.21-1.118 3.814-1.118 1.603 0 2.897.365 3.882 1.096.984.73 1.506 1.73 1.565 2.998h-3.914c-.045-.433-.194-.727-.448-.884-.253-.157-.634-.235-1.14-.235-1 0-1.5.306-1.5.917 0 .552.612.932 1.835 1.141 1.238.209 2.364.53 3.378.962.522.209.958.556 1.309 1.04.35.485.525 1.078.525 1.779 0 1.163-.5 2.114-1.499 2.852-.999.738-2.26 1.108-3.78 1.108-1.522 0-2.79-.347-3.803-1.04-1.015-.694-1.566-1.72-1.656-3.077h3.915c.104.761.641 1.141 1.61 1.141.448 0 .817-.104 1.108-.313.291-.209.436-.477.436-.805 0-.328-.242-.59-.727-.783a9.887 9.887 0 0 0-1.756-.492 23.837 23.837 0 0 1-2.07-.504 3.95 3.95 0 0 1-1.766-1.051c-.485-.5-.727-1.152-.727-1.958zm18.567 5.481h1.365v3.244h-1.946c-1.402 0-2.487-.31-3.255-.928-.768-.62-1.152-1.682-1.152-3.188v-5.19h-1.164V6.047h1.164V3.005h3.825v3.042h2.506v3.177h-2.506v5.19c0 .581.388.872 1.163.872zm5.884-10a2.16 2.16 0 0 1-1.588-.648c-.433-.433-.65-.966-.65-1.6 0-.634.217-1.167.65-1.6A2.16 2.16 0 0 1 92.28.79a2.16 2.16 0 0 1 1.588.649c.433.432.65.965.65 1.6 0 .633-.217 1.166-.65 1.599a2.16 2.16 0 0 1-1.588.648zM90.379 18.53V6.047h3.826V18.53h-3.826zM61.105 24.826h4.116L60.836 40.53h-4.384L53.7 30.575l-2.73 9.955h-4.384l-4.452-15.704h4.094l2.73 11.297 2.796-11.297h4.34l2.684 11.118 2.327-11.118zm14.384 9.462c0-.984-.276-1.74-.827-2.27-.552-.53-1.186-.794-1.902-.794s-1.35.268-1.901.805c-.552.537-.828 1.298-.828 2.282s.276 1.741.828 2.27c.551.53 1.185.795 1.901.795s1.35-.269 1.902-.806c.551-.537.827-1.297.827-2.282zm-9.35.023c0-1.864.551-3.397 1.655-4.597 1.103-1.201 2.45-1.801 4.038-1.801s2.807.589 3.657 1.767v-1.633h3.826V40.53h-3.826v-1.812c-.924 1.312-2.162 1.969-3.713 1.969-1.551 0-2.879-.597-3.982-1.79-1.104-1.193-1.656-2.722-1.656-4.586zM82.67 40.53V23.975h3.826V40.53H82.67zm7.182 0V23.975h3.825V40.53h-3.825z"/></g></svg>