<svg width="93" height="42" viewBox="0 0 93 42" xmlns="http://www.w3.org/2000/svg"><title>fw-logo-white</title><g fill="#F9F5F0" fill-rule="evenodd"><path d="M3.612.574l-3.586 3.1v.351L0 4.05l.026.26V41.5h30.27l.255.03.03-.03h.364L34 38.356V.531L3.612.574zm.444.953L17.337 1.5l-2.464 2.174H1.765l2.29-2.148zm14.617.063l13.555.023-2.419 2.062-13.591.006 2.455-2.091zm12.272 2.945l1.998-1.922v5.633l-1.998 1.923V4.535zm-14.847.349H29.72v6.114H16.098V4.884zm-14.848 0h13.623v6.114H1.25V4.884zm29.695 6.975l1.998-1.924v5.634l-1.998 1.924v-5.634zm-7.424 6.463h6.198v-6.114h-6.198v6.114zm-14.847 0h13.622v-6.114H8.674v6.114zm-7.424 0H7.45v-6.114H1.25v6.114zm29.695.86l1.998-1.923v5.634l-1.998 1.922v-5.633zm-14.847.35H29.721v6.113H16.097V19.53zm-14.848 0H14.873v6.113H1.25V19.53zm29.695 6.972l1.998-1.922v5.634l-1.998 1.922v-5.634zm-7.424 6.464h6.198v-6.114h-6.198v6.114zm-14.847 0h13.622v-6.114H8.674v6.114zm-7.424 0H7.45v-6.114H1.25v6.114zm29.695.86l1.998-1.923v5.983l-1.998 1.923v-5.983zm-14.847.35H29.721v6.113H16.097v-6.114zm-14.848 0H14.873v6.113H1.25v-6.114z"/><text font-family="Poppins" font-size="22.371" font-weight="bold" letter-spacing="-.531" transform="translate(0 -7.47)"><tspan x="40" y="25">Festi</tspan></text><text font-family="Poppins" font-size="22.371" font-weight="bold" letter-spacing="-.531" transform="translate(0 -7.47)"><tspan x="42" y="47">Wall</tspan></text></g></svg>