<svg width="154" height="41" viewBox="0 0 154 41" xmlns="http://www.w3.org/2000/svg"><title>logo-inline</title><g fill="#221F20" fill-rule="evenodd"><path d="M3.612.043L.026 3.144v.35L0 3.519l.026.26V40.97h30.27l.255.029.03-.03h.364L34 37.827V0L3.612.043zm.444.953L17.337.971l-2.464 2.173-13.108.001L4.055.996zm14.617.063l13.555.024-2.419 2.061-13.591.007 2.455-2.092zm12.272 2.945l1.998-1.922v5.633l-1.998 1.923V4.004zm-14.847.35H29.72v6.113H16.098V4.353zm-14.848 0h13.623v6.113H1.25V4.353zm29.695 6.974l1.998-1.924v5.634l-1.998 1.924v-5.634zm-7.424 6.463h6.198v-6.113h-6.198v6.113zm-14.847 0h13.622v-6.113H8.674v6.113zm-7.424 0H7.45v-6.113H1.25v6.113zm29.695.86l1.998-1.923v5.634l-1.998 1.922v-5.633zm-14.847.35H29.721v6.113H16.097v-6.113zM1.25 19H14.873v6.113H1.25v-6.113zm29.695 6.972l1.998-1.922v5.634l-1.998 1.922v-5.634zm-7.424 6.465h6.198v-6.114h-6.198v6.114zm-14.847 0h13.622v-6.114H8.674v6.114zm-7.424 0H7.45v-6.114H1.25v6.114zm29.695.86l1.998-1.923v5.983l-1.998 1.923v-5.984zm-14.847.349H29.721v6.114H16.097v-6.114zm-14.848 0H14.873v6.114H1.25v-6.114z"/><text font-family="Poppins" font-size="22.371" font-weight="bold" letter-spacing="-.531"><tspan x="50" y="29">Festi</tspan></text><text font-family="Poppins" font-size="22.371" font-weight="bold" letter-spacing="-.531"><tspan x="104" y="29">Wall</tspan></text></g></svg>