<svg width="501" height="74" viewBox="0 0 501 74" xmlns="http://www.w3.org/2000/svg"><title>Logo Pandora</title><g fill="#1A1918" fill-rule="evenodd"><path d="M30.187 36.601H18.99V16.869h11.197a9.871 9.871 0 0 1 9.912 9.912c0 5.507-4.406 9.82-9.912 9.82m-.275-34.967h-29v68.833H18.99V52.203h11.29c13.673 0 24.962-11.38 24.962-25.238 0-13.95-11.38-25.331-25.33-25.331M85.985 46.238l7.066-15.144 6.976 15.144H85.985zM88.83 1.634L56.709 70.467h18.08l4.13-8.995h28.174l4.223 8.995h18.08L96.999 1.634h-8.17zM178.493 34.124l-32.58-32.49h-7.342v68.833h18.08V37.886l32.49 32.58h7.434V1.635h-18.082zM236.031 52.479h-7.617V19.898h7.617c8.995 0 16.336 7.343 16.336 16.245 0 8.993-7.34 16.336-16.336 16.336m-.09-50.845h-25.514v68.833h25.514c18.996 0 34.416-15.418 34.416-34.416 0-18.998-15.42-34.417-34.416-34.417M390.667 36.601H379.47V16.869h11.196a9.871 9.871 0 0 1 9.912 9.912c0 5.507-4.406 9.82-9.912 9.82m25.055-9.636c0-13.95-11.381-25.331-25.33-25.331H361.39v68.833h18.08V52.203h11.196l10.646 18.264h20.834l-14.593-24.963c4.957-4.59 8.168-11.197 8.168-18.539M457.568 46.238l7.066-15.144 6.976 15.144h-14.042zm11.014-44.604h-8.169l-32.12 68.833h18.08l4.13-8.995h28.173l4.223 8.995h18.08L468.582 1.634zM314.407 52.479c-8.995 0-16.336-7.434-16.336-16.428 0-9.086 7.34-16.43 16.336-16.43 9.085 0 16.427 7.344 16.427 16.43 0 8.994-7.342 16.428-16.427 16.428m29.395-51.172l-7.821 7.992c-5.905-4.782-13.403-7.665-21.574-7.665-19 0-34.326 15.51-34.326 34.509a34.18 34.18 0 0 0 7.506 21.422l-8.675 8.863a4.21 4.21 0 1 0 6.019 5.89l8.69-8.88c5.769 4.394 12.954 7.029 20.786 7.029 18.997 0 34.416-15.327 34.416-34.324 0-7.796-2.627-14.981-7.002-20.771l8-8.174a4.21 4.21 0 1 0-6.02-5.891"/></g></svg>